<svg width="17" height="16" viewBox="0 0 17 16" fill="none" xmlns="http://www.w3.org/2000/svg">
<g id="Frame" clip-path="url(#clip0_2804_9033)">
<path id="Vector" d="M1 9.8999C1.13261 9.8999 1.25979 9.95258 1.35355 10.0463C1.44732 10.1401 1.5 10.2673 1.5 10.3999V12.8999C1.5 13.1651 1.60536 13.4195 1.79289 13.607C1.98043 13.7945 2.23478 13.8999 2.5 13.8999H14.5C14.7652 13.8999 15.0196 13.7945 15.2071 13.607C15.3946 13.4195 15.5 13.1651 15.5 12.8999V10.3999C15.5 10.2673 15.5527 10.1401 15.6464 10.0463C15.7402 9.95258 15.8674 9.8999 16 9.8999C16.1326 9.8999 16.2598 9.95258 16.3536 10.0463C16.4473 10.1401 16.5 10.2673 16.5 10.3999V12.8999C16.5 13.4303 16.2893 13.939 15.9142 14.3141C15.5391 14.6892 15.0304 14.8999 14.5 14.8999H2.5C1.96957 14.8999 1.46086 14.6892 1.08579 14.3141C0.710714 13.939 0.5 13.4303 0.5 12.8999V10.3999C0.5 10.2673 0.552678 10.1401 0.646447 10.0463C0.740215 9.95258 0.867392 9.8999 1 9.8999Z" fill="#737373"/>
<path id="Vector_2" d="M8.1459 11.854C8.19234 11.9006 8.24752 11.9375 8.30827 11.9627C8.36901 11.9879 8.43413 12.0009 8.4999 12.0009C8.56567 12.0009 8.63079 11.9879 8.69153 11.9627C8.75228 11.9375 8.80745 11.9006 8.8539 11.854L11.8539 8.854C11.9478 8.76011 12.0005 8.63278 12.0005 8.5C12.0005 8.36722 11.9478 8.23989 11.8539 8.146C11.76 8.05211 11.6327 7.99937 11.4999 7.99937C11.3671 7.99937 11.2398 8.05211 11.1459 8.146L8.9999 10.293V1.5C8.9999 1.36739 8.94722 1.24021 8.85345 1.14645C8.75969 1.05268 8.63251 1 8.4999 1C8.36729 1 8.24011 1.05268 8.14635 1.14645C8.05258 1.24021 7.9999 1.36739 7.9999 1.5V10.293L5.8539 8.146C5.76001 8.05211 5.63268 7.99937 5.4999 7.99937C5.36712 7.99937 5.23979 8.05211 5.1459 8.146C5.05201 8.23989 4.99927 8.36722 4.99927 8.5C4.99927 8.63278 5.05201 8.76011 5.1459 8.854L8.1459 11.854Z" fill="#737373"/>
</g>
<defs>
<clipPath id="clip0_2804_9033">
<rect width="16" height="16" fill="white" transform="translate(0.5)"/>
</clipPath>
</defs>
</svg>
